<svg xmlns="http://www.w3.org/2000/svg" viewBox="0 0 125 37.99"><defs><style>.cls-1{fill:#fff;}.cls-2{fill:#ff4d00;}</style></defs><g id="Layer_2" data-name="Layer 2"><g id="BBQ_and_steak_house_badges" data-name="BBQ and steak house badges"><path class="cls-1" d="M15.86,0H20c.68,0,1,.33,1,1V23.5a7.94,7.94,0,0,1-2.11,5.9A8,8,0,0,1,13,31.48H8.08a8.18,8.18,0,0,1-6-2.05A7.9,7.9,0,0,1,0,23.5V18.9a.91.91,0,0,1,1-1H5.19a.91.91,0,0,1,1,1v4.31a3.1,3.1,0,0,0,.66,2.23,3,3,0,0,0,2.18.66H12a3,3,0,0,0,2.2-.66,3.19,3.19,0,0,0,.64-2.23V1C14.79.34,15.15,0,15.86,0Z"/><path class="cls-1" d="M44.26,31.48H28.15a.91.91,0,0,1-1-1V1a.91.91,0,0,1,1-1h4.17a.9.9,0,0,1,1,1V25.51c0,.36.2.54.59.54H44.26c.65,0,1,.36,1,1.07v3.33C45.24,31.14,44.91,31.48,44.26,31.48Z"/><path class="cls-2" d="M49.11,30.45V1a.91.91,0,0,1,1-1H61.89a8.14,8.14,0,0,1,6,2.06A7.85,7.85,0,0,1,70,7.93v2a5.13,5.13,0,0,1-3.87,5.38,5.09,5.09,0,0,1,3.13,1.6,5.26,5.26,0,0,1,1.18,3.69v2.94a7.82,7.82,0,0,1-2.11,5.88,8.12,8.12,0,0,1-5.92,2.05H50.14A.91.91,0,0,1,49.11,30.45Zm6.76-17.67h5a3.38,3.38,0,0,0,2.3-.66,2.81,2.81,0,0,0,.74-2.18V8a2.88,2.88,0,0,0-.71-2.18,3.3,3.3,0,0,0-2.28-.66h-5a.48.48,0,0,0-.54.54v6.51A.48.48,0,0,0,55.87,12.78Zm0,13.51h5.48a3.38,3.38,0,0,0,2.33-.66,2.88,2.88,0,0,0,.71-2.18V20.61a2.71,2.71,0,0,0-.74-2.15,3.61,3.61,0,0,0-2.4-.64H55.87a.48.48,0,0,0-.54.54v7.39A.48.48,0,0,0,55.87,26.29Z"/><path class="cls-2" d="M76.28,30.45V1a.91.91,0,0,1,1-1H89.06a8.18,8.18,0,0,1,6,2.06,7.85,7.85,0,0,1,2.1,5.87v2a5.13,5.13,0,0,1-3.87,5.38,5.12,5.12,0,0,1,3.14,1.6,5.31,5.31,0,0,1,1.17,3.69v2.94a7.86,7.86,0,0,1-2.1,5.88,8.14,8.14,0,0,1-5.93,2.05H77.31A.91.91,0,0,1,76.28,30.45ZM83,12.78h5a3.34,3.34,0,0,0,2.3-.66,2.81,2.81,0,0,0,.74-2.18V8a2.88,2.88,0,0,0-.71-2.18,3.27,3.27,0,0,0-2.28-.66H83a.48.48,0,0,0-.54.54v6.51A.48.48,0,0,0,83,12.78Zm0,13.51h5.48a3.36,3.36,0,0,0,2.33-.66,2.88,2.88,0,0,0,.71-2.18V20.61a2.71,2.71,0,0,0-.74-2.15,3.6,3.6,0,0,0-2.39-.64H83a.48.48,0,0,0-.54.54v7.39A.48.48,0,0,0,83,26.29Z"/><path class="cls-2" d="M121.43,38h-3.58a2,2,0,0,1-1.91-1l-3.18-5.49h-1.32a8.22,8.22,0,0,1-6-2.05,7.93,7.93,0,0,1-2.1-5.93V8a7.91,7.91,0,0,1,2.1-5.92,8.18,8.18,0,0,1,6-2.06h5.48a8.14,8.14,0,0,1,6,2.06A7.87,7.87,0,0,1,125,8V23.5a8.35,8.35,0,0,1-1.54,5.24,6.92,6.92,0,0,1-4.38,2.55l3.13,5.43a1,1,0,0,1,0,.93A.89.89,0,0,1,121.43,38Zm-9-11.89h3.47a3.08,3.08,0,0,0,2.23-.66,3.1,3.1,0,0,0,.66-2.23V8.27a3.07,3.07,0,0,0-.66-2.22,3.08,3.08,0,0,0-2.23-.66h-3.47a3,3,0,0,0-2.21.66,3.17,3.17,0,0,0-.63,2.22V23.21a3.2,3.2,0,0,0,.63,2.23A3,3,0,0,0,112.47,26.1Z"/></g></g></svg>