<?xml version="1.0" encoding="utf-8"?>
<!-- Generator: Adobe Illustrator 24.1.1, SVG Export Plug-In . SVG Version: 6.00 Build 0)  -->
<svg version="1.1" id="Layer_1" xmlns="http://www.w3.org/2000/svg" xmlns:xlink="http://www.w3.org/1999/xlink" x="0px" y="0px"
	 viewBox="0 0 106.7 64" style="enable-background:new 0 0 106.7 64;" xml:space="preserve">
<style type="text/css">
	.st0{fill-rule:evenodd;clip-rule:evenodd;fill:#FF4C00;}
</style>
<g id="Layer_2_1_">
	<g id="BBQ_and_steak_house_badges">
		<path class="st0" d="M90,4.9c0.4-0.1,0.8-0.2,1.2-0.3c1.4-0.9,2.5-2.2,3.3-3.7C95-0.3,95.2-0.3,95,1c-0.1,1.4-0.6,2.8-1.4,4
			c1.5-1,2.6-2.3,3.4-3.9c0.6-1.3,0.8-1.3,0.5,0.1c-0.2,2.3-1.2,4.4-2.9,5.9c0.3,0.3,0.5,0.7,0.9,1.1c1.1,0.6,2,1.5,2.6,2.6
			c-0.1,0.7,0.3,1.4,0.9,1.8c1.3,1,2.5,2.2,3.5,3.5c0.5,0.7,1.1,1.2,1.9,1.6c2.2,0.5,2.9,1.4,2.1,2.7c0.1,1.1-0.4,2.2-1.2,2.9
			c0,0.5-0.4,0.7-1.2,0.6c0,1.5-1.1,1.9-3.3,1.2c-1.4-0.8-3.1-1.1-4.7-0.9c-2.5,0.8-5.1,1.2-7.7,1.1c-7,5.4-7.7,12.2-14.7,15.2
			c-1.2,3-2,6-2.4,9.2C71,50.7,70,51.9,70,52.8c0.2,2.7,0.9,5.4,2.2,7.8c0.4,0.3,0.8,0.7,1,1.1c0.7,1.4,1.5,2.2-0.8,2.2h-3.7
			c-1.2,0-1.2,0.1-1.2-1.4c0-0.6,0.1-1.2,0.3-1.8c-0.3-1-0.8-1.8-1.5-2.6c0-1.7,0-3.8-0.2-6.1c-0.1-1.1-0.6-1.9-0.7-3.2
			c-0.2-1.8-0.7-4.8-1-7.1c-0.4-0.3-0.9-0.5-1.3-0.5c-0.7,2.1-1.1,4.3-1.4,6.5c-0.1,0.9-1.2,2.2-1.1,3.1c0.1,2.7,0.9,5.4,2.2,7.8
			c0.4,0.3,0.8,0.7,1,1.1c0.7,1.4,1.5,2.2-0.8,2.2h-3.7c-1.2,0-1.2,0.1-1.2-1.4c0-0.6,0.2-1.2,0.3-1.8c-0.3-1-0.8-1.8-1.5-2.6
			c0-1.7,0-3.8-0.2-6.1c-0.1-1.1-0.5-1.9-0.7-3.2c-0.2-1.6-0.5-4-0.8-6.2c-10,3-16.8-0.4-21.9-1.7c-0.8,1.6-2.2,2.8-3.9,3.2
			c-0.5,0.1,0.3,2.8-0.9,2.8s-1.3-2.7-1.8-2.7c-0.7,0-1.4,0.2-2.2,0.2c-0.4,0-0.2,2.5-1.7,2.3c-0.5-0.1-0.6-0.9-0.6-1.6
			c-1.5,4.9-0.6,10,2.7,15.4c0.4,0.3,0.8,0.7,1.1,1.1c0.9,1.4,1.8,2.2-0.5,2.2h-3.7c-1.2,0-1.2,0.1-1.4-1.4c0-0.6,0-1.2,0.1-1.8
			c-0.5-1-1.1-1.9-1.8-2.6c-0.5-4.3-1.3-8.5-2.4-12.6c-3,5.4-3,11.1,0,17.1c0.4,0.3,0.8,0.7,1,1.1c0.7,1.4,1.5,2.2-0.8,2.2h-3.7
			c-1.2,0-1.2,0.1-1.2-1.4c0-0.6,0.1-1.2,0.3-1.8c-0.3-1-0.8-1.8-1.5-2.6c-0.1-5.5-0.5-10.9-1.3-16.3c3.8-3.4,5-8.5,3.4-15.4
			c-0.5-2.1-1.3-3.9-1.8-5.9c-1.5-6,0.1-10,3.3-12.4C7.4,10.3,8.1,17.4,8,22.7c0,3.6-0.5,7.1-1.5,10.6C8.8,40,2.8,42.4,2,46.4
			c-4.5-7-0.6-10.5,2.6-13.2c1.1-3.4,1.7-6.9,1.8-10.5C6.5,17.1,5.6,10.6,11,7.2c3.4-2.1,12.2-2.6,16.8-1.8l0,0
			c2.9,0.2,5.8,0.8,8.6,1.8C45,8.3,54.9,9.3,59.9,7.7c8-2.6,19.8,0.5,24.8,0.3C86.9,7.8,88.8,6.7,90,4.9L90,4.9z"/>
	</g>
</g>
</svg>
