<?xml version="1.0" encoding="utf-8"?>
<!-- Generator: Adobe Illustrator 24.1.1, SVG Export Plug-In . SVG Version: 6.00 Build 0)  -->
<svg version="1.1" id="Layer_1" xmlns="http://www.w3.org/2000/svg" xmlns:xlink="http://www.w3.org/1999/xlink" x="0px" y="0px"
	 viewBox="0 0 114.3 55" style="enable-background:new 0 0 114.3 55;" xml:space="preserve">
<style type="text/css">
	.st0{fill-rule:evenodd;clip-rule:evenodd;fill:#FF4C00;}
</style>
<g id="Layer_2_1_">
	<g id="BBQ_and_steak_house_badges">
		<path class="st0" d="M20.3,39.7c0.4-0.9,0.1-1.9-0.8-3c-4.6-5.8-6.7-13.4-3.9-22.9c-1.1-0.8-3.6-0.6-5,0c0.4,0.9,0.7,1.8,0.8,2.7
			c0.2,5.9-8.1,3.7-6.8-0.5c0.6-1.4,1.5-2.6,2.8-3.4c-1.9-1-3.3-0.6-4.9,0.6C0,15.1-1.1,14,1.4,12s5-2.1,7.4-0.3
			c2.5-1,5.1-1.4,7.8-1.2C21.4,4.4,28.3,3.7,38.3,4C52.9,6,63.8,6.9,71,6.8c7.5-0.4,10.6,1.8,17.4,3.2c0.4-2.7,3.2-4.9,9.2-6.3
			c5-6.4,5-3.6,3.3,0.7c4.2-5.3,4-2.5,2.4,1.3c-1.2,2.8-1,5.3-1.7,8c3,2.9,0.7,3.8,2.7,5.5c1.1,0.9,4.1,2,7.3,3.2
			c1,0.2,1.7-0.9,2.7,0c-0.1,3.9-0.2,6.3-0.2,6.3c-0.6,0.3-1.3,0.5-2,0.7c-0.3,1.4-1.1,2.1-3.8,2c-4.6,3.8-12.9,5.2-16,5.1
			C89.4,37,86.7,37.9,84,39c-0.3,1.1-0.3,2.2-0.1,3.3c0.4,1.7,1.7,3.4,1.5,4.4c1.5,2.6,2.6,3.7,1.2,3.7h-4.4c-0.7,0-0.7-1-1-2.3
			c-0.3,1.8-1.6,1.7-1.7,0c0-0.5,0-0.9-0.1-1.5c-0.4-1.9-0.8-3.7-1.4-5.5c-1,1.7-1.4,3.8-1,5.8l0,0V47l0,0v0.1l0,0v0.1
			c0.3,0.8,0.6,1.6,1,2.3c0.3,0.6,0.5,1.2,0.5,1.8c0.7,1,1.3,2,1.8,3.1c0.2,0.5,0,0.7-0.6,0.7h-4.3c-0.3,0-0.6-0.1-0.7-0.4
			c-0.2-0.6-0.3-1.2-0.4-1.8v-0.1c0,0.2-0.1,0.3-0.1,0.5c-0.5,1.6-1.5,0.7-1.6-0.6c0-0.4,0-0.8-0.1-1.3l0,0l0,0l0,0l0,0l0,0l0,0l0,0
			l0,0l0,0l0,0l0,0l0,0l0,0v-0.2c-0.4-2.6-1.5-5-1.8-7.5c-0.1-0.8-0.2-1.7-0.2-2.5c-10.8,0.3-21,5.1-33.7,0.3
			c-0.8,1.1,1.8,3.8,1,4.3c0.9,1,1.6,2,2.3,3.2c1.1,2-2,1.5-4.7,1.5c-0.6,0-1-0.5-1.1-1.1L33.9,48c-0.7,1.8-2,1.4-1.9-0.8
			c-1.3-4.1-2.3-6.5-3.1-7.8c-3.9,5.1,2.8,10.1,1.5,10.9c0.9,1,1.6,2,2.3,3.2c0.6,1.1,0,1.4-1.2,1.5h-3.5c-0.6,0-1-0.5-1.1-1.1
			s-0.4-1.4-0.4-1.4c-0.7,1.8-2,1.4-1.9-0.8c-1.4-4.3-2.4-6.7-3.3-8C19.9,42.1,19.6,40.8,20.3,39.7L20.3,39.7z M9.1,14.4
			c-1.1,0.2-2.7,0.9-3,2.1c-0.6,1.9,3.9,3.6,3.8,0.1C9.7,15.8,9.5,15.1,9.1,14.4z"/>
	</g>
</g>
</svg>
